<?xml version="1.0" standalone="no"?>
<!DOCTYPE svg PUBLIC "-//W3C//DTD SVG 20010904//EN"
 "http://www.w3.org/TR/2001/REC-SVG-20010904/DTD/svg10.dtd">
<svg version="1.0" xmlns="http://www.w3.org/2000/svg"
 width="741.000000pt" height="741.000000pt" viewBox="0 0 741.000000 741.000000"
 preserveAspectRatio="xMidYMid meet">
<metadata>
Created by potrace 1.14, written by Peter Selinger 2001-2017
</metadata>
<g transform="translate(0.000000,741.000000) scale(0.100000,-0.100000)"
fill="#000000" stroke="none">
<path d="M4315 7398 c-44 -9 -151 -28 -177 -30 -9 -1 -15 -5 -12 -9 2 -4 -44
-23 -102 -43 -125 -43 -241 -99 -334 -161 -37 -25 -75 -45 -83 -45 -33 0 -99
-116 -75 -132 18 -11 36 -10 40 2 2 5 13 7 26 4 18 -5 20 -9 11 -20 -10 -12
-9 -13 5 -8 9 3 16 2 16 -3 0 -14 40 -29 73 -28 15 1 27 -2 27 -7 0 -4 13 -6
30 -5 16 1 30 6 30 11 0 5 9 1 20 -9 19 -17 21 -17 62 25 50 49 96 80 153 99
48 17 140 56 178 77 15 8 27 12 27 8 0 -3 6 -2 13 3 19 16 78 35 122 40 22 2
85 15 140 29 55 13 108 26 119 29 49 12 223 1 331 -20 46 -9 115 -37 115 -46
0 -5 6 -9 14 -9 7 0 25 -9 38 -20 14 -10 28 -16 32 -13 3 3 6 0 7 -8 0 -8 22
-32 49 -54 27 -22 49 -44 49 -49 1 -5 7 -17 15 -25 7 -9 28 -43 46 -76 17 -33
35 -64 38 -70 4 -5 7 -14 8 -20 1 -5 16 -48 34 -95 59 -155 110 -333 110 -380
0 -17 -5 -16 -46 12 -58 39 -296 146 -364 164 -8 2 -35 9 -60 15 -25 7 -52 14
-60 17 -20 7 -64 15 -163 29 -80 11 -111 -20 -76 -74 10 -15 19 -25 19 -21 0
4 28 -7 63 -26 58 -31 101 -47 137 -51 64 -7 253 -73 313 -109 31 -19 58 -31
61 -28 3 3 6 1 6 -5 0 -5 11 -15 25 -21 23 -11 122 -80 151 -107 6 -5 37 -32
68 -59 63 -54 89 -90 59 -79 -10 3 -22 9 -28 13 -24 18 -121 32 -172 26 -104
-12 -141 -53 -107 -118 24 -46 122 -160 158 -183 17 -10 34 -24 38 -30 22 -33
51 -65 59 -65 5 0 26 -18 47 -41 20 -22 53 -50 72 -61 19 -12 45 -31 57 -44
13 -13 30 -27 38 -32 32 -17 52 -168 49 -366 -4 -257 -9 -281 -56 -268 -25 6
-42 33 -67 107 -39 118 -90 195 -139 213 -95 33 -162 46 -162 31 0 -5 -8 -9
-17 -9 -24 0 -23 -42 3 -100 17 -36 38 -107 49 -160 3 -16 16 -91 21 -124 3
-21 7 -48 10 -60 2 -11 7 -48 10 -81 4 -33 9 -64 11 -69 3 -4 7 -25 10 -45 2
-20 8 -66 13 -103 6 -37 10 -71 10 -76 0 -6 -36 -9 -84 -8 -82 1 -86 0 -113
-29 -52 -54 -93 -162 -146 -385 -27 -113 -38 -175 -42 -257 -3 -63 19 -89 81
-95 54 -6 84 6 85 34 1 22 1 22 9 -2 8 -25 8 -25 10 5 4 64 9 93 30 165 11 41
23 93 27 115 12 82 69 247 101 294 21 30 111 -89 153 -204 4 -11 12 -33 18
-50 30 -83 50 -232 46 -355 -4 -142 -7 -163 -42 -280 -81 -273 -285 -415 -468
-325 -67 32 -103 37 -118 14 -8 -12 -5 -21 9 -37 24 -25 91 -72 104 -72 6 0
10 -4 10 -9 0 -17 95 -32 175 -27 101 6 168 25 242 67 79 45 89 54 138 130
111 169 151 298 154 504 1 72 -3 155 -9 185 -6 30 -13 68 -15 83 -3 23 -13 71
-20 97 -1 3 -5 19 -10 35 -4 17 -29 73 -55 125 -26 54 -45 108 -45 125 1 17
-2 37 -6 46 -5 9 -2 25 8 38 11 17 14 35 9 74 -4 29 -8 66 -10 82 -12 95 -15
164 -7 169 5 3 6 26 4 50 -9 72 -5 75 69 59 73 -15 144 -9 175 16 37 31 65
104 69 183 1 40 7 91 12 113 7 37 8 80 2 210 -5 94 -3 100 34 113 19 7 40 20
47 29 19 22 16 148 -3 171 -8 9 -20 37 -27 62 -15 52 -59 122 -94 150 -14 11
-24 30 -24 44 0 32 -128 202 -195 259 -27 23 -85 76 -128 117 -68 66 -78 80
-83 117 -3 24 -2 45 2 48 13 7 10 106 -4 168 -8 33 -12 64 -9 68 2 4 1 10 -4
13 -5 3 -15 38 -22 78 -23 131 -80 271 -125 308 -8 7 -15 16 -15 20 0 29 -252
240 -287 240 -4 0 -25 11 -45 25 -20 14 -42 25 -48 25 -7 0 -26 6 -43 14 -44
20 -185 63 -227 70 -19 3 -57 10 -85 16 -62 14 -346 20 -400 8z m1341 -1565
c24 -26 44 -50 44 -54 0 -4 13 -29 30 -56 16 -26 32 -61 35 -78 l6 -30 -26 30
c-15 17 -48 53 -73 81 -53 57 -103 134 -96 146 12 19 39 5 80 -39z"/>
<path d="M4088 7353 c7 -3 16 -2 19 1 4 3 -2 6 -13 5 -11 0 -14 -3 -6 -6z"/>
<path d="M3920 7300 c-9 -6 -10 -10 -3 -10 6 0 15 5 18 10 8 12 4 12 -15 0z"/>
<path d="M2110 6691 c0 -5 -31 -18 -69 -30 -38 -12 -93 -37 -122 -57 -57 -38
-149 -131 -149 -151 0 -6 -3 -13 -7 -15 -28 -12 -92 -150 -109 -233 -34 -165
-11 -261 79 -320 20 -14 37 -30 37 -37 0 -6 -19 -32 -42 -58 -93 -101 -145
-176 -209 -299 -19 -36 -62 -94 -97 -130 -153 -157 -251 -366 -211 -444 14
-26 45 -57 57 -57 4 0 17 -8 28 -17 30 -27 115 -70 152 -78 38 -8 61 -28 120
-107 32 -41 56 -62 86 -73 48 -19 102 -17 98 3 -1 7 9 17 23 22 14 5 25 15 26
22 5 106 18 181 36 201 11 12 26 42 34 67 7 24 26 67 42 95 15 27 37 71 49 97
12 27 29 50 37 53 9 3 17 16 17 31 2 17 22 45 64 85 43 42 60 65 56 77 -4 11
7 31 32 57 40 43 148 144 199 186 21 18 28 30 23 40 -5 7 -7 16 -4 20 8 13
-75 71 -111 78 -5 2 -18 9 -27 18 -14 12 -15 19 -5 34 6 10 20 19 30 19 17 0
71 33 92 56 5 7 28 20 50 30 22 10 51 25 65 34 14 10 36 20 50 24 14 4 34 11
45 16 36 15 118 40 134 40 30 0 99 32 103 49 7 28 -3 50 -25 57 -12 4 -28 15
-35 25 -7 11 -20 19 -28 19 -8 0 -14 3 -14 8 0 8 -90 51 -123 58 -72 15 -170
2 -244 -31 -17 -8 -36 -15 -43 -15 -7 0 -24 -6 -38 -13 -136 -68 -244 -118
-249 -113 -3 3 -13 -5 -23 -17 -15 -18 -20 -19 -34 -8 -9 7 -14 16 -11 20 4 8
18 95 18 119 0 8 10 18 23 22 19 8 32 27 40 63 1 4 3 10 4 15 1 4 2 11 1 16
-2 12 45 75 90 118 20 20 35 39 31 42 -3 3 4 6 16 6 11 0 24 5 27 10 3 6 18
10 33 10 15 0 41 7 57 16 43 23 60 26 161 29 88 2 182 -14 309 -54 43 -14 200
-89 253 -121 17 -11 32 -16 32 -12 0 4 4 1 8 -6 5 -7 17 -14 28 -17 10 -2 29
-7 41 -11 18 -5 25 -1 32 17 5 14 5 31 0 41 -10 19 -112 98 -126 98 -4 0 -31
16 -58 36 -56 40 -151 86 -240 115 -33 12 -67 23 -75 26 -8 3 -19 7 -25 9 -39
10 -123 33 -135 37 -45 16 -71 17 -64 5 4 -7 -2 -4 -14 6 -12 11 -22 17 -22
13 0 -3 -26 1 -57 8 -44 10 -60 11 -65 2 -6 -9 -8 -9 -8 1 0 10 -5 10 -21 1
-15 -8 -19 -8 -15 0 10 15 -37 14 -52 -1 -9 -9 -12 -9 -12 0 0 7 -11 12 -25
12 -14 0 -25 -4 -25 -9z m-320 -268 c0 -3 -12 -26 -26 -51 -18 -31 -29 -41
-34 -32 -8 13 6 49 25 62 7 5 7 8 0 8 -5 0 -3 5 5 10 18 11 30 13 30 3z m15
-43 c3 -5 1 -10 -4 -10 -6 0 -11 5 -11 10 0 6 2 10 4 10 3 0 8 -4 11 -10z"/>
<path d="M3750 6605 c-30 -6 -75 -22 -100 -34 -52 -27 -151 -98 -163 -118 -4
-7 -14 -13 -21 -13 -21 0 -143 -135 -170 -188 -13 -26 -27 -67 -31 -92 -4 -25
-9 -54 -11 -65 -13 -67 -15 -269 -4 -315 12 -48 51 -110 70 -110 5 0 21 -11
36 -25 15 -14 32 -25 38 -25 6 0 23 -6 37 -13 14 -8 50 -13 81 -13 31 1 54 -2
52 -6 -5 -8 17 -12 51 -8 11 1 35 10 53 21 19 11 38 17 43 14 5 -4 19 -27 30
-53 12 -26 32 -61 45 -78 39 -53 194 -128 282 -137 17 -2 34 -6 37 -8 2 -3 15
-56 28 -119 28 -131 67 -221 107 -250 16 -11 61 -34 102 -52 93 -40 208 -46
273 -15 45 21 95 65 95 82 0 6 9 29 20 50 11 22 21 50 22 63 1 12 6 22 10 22
4 0 10 23 14 50 4 28 8 50 11 50 2 0 19 -14 38 -31 33 -30 121 -77 159 -85 10
-2 25 3 33 12 20 20 10 59 -28 106 -32 40 -69 119 -69 147 0 42 -85 247 -112
268 -13 10 -80 35 -108 39 -111 17 -117 17 -132 -5 -11 -15 -13 -33 -8 -60 21
-118 -27 -431 -80 -518 -31 -52 -48 -41 -70 42 -7 28 -18 56 -24 63 -5 8 -9
28 -8 44 1 17 -3 37 -10 45 -8 10 -13 55 -14 127 -3 198 -7 261 -15 266 -5 3
-3 17 4 30 7 14 12 34 11 45 -7 83 -18 133 -33 150 -9 11 -23 32 -31 48 -7 15
-21 27 -30 27 -9 0 -20 3 -24 7 -9 9 -90 32 -136 39 -19 3 -36 7 -38 9 -11 10
-39 -45 -50 -95 -17 -81 -29 -145 -31 -174 -1 -5 -4 -7 -7 -3 -7 6 -17 103
-14 127 1 8 3 98 4 200 1 179 -11 291 -33 298 -5 2 -21 13 -36 26 l-26 23 28
19 c15 10 31 18 34 17 3 -1 18 8 33 21 40 31 29 58 -36 86 -28 12 -63 24 -77
26 -14 3 -30 6 -36 8 -5 2 -35 -2 -65 -9z m-100 -535 c0 -5 -5 -10 -11 -10 -5
0 -7 5 -4 10 3 6 8 10 11 10 2 0 4 -4 4 -10z m37 -426 c-3 -3 -12 -4 -19 -1
-8 3 -5 6 6 6 11 1 17 -2 13 -5z"/>
<path d="M4042 4601 c-28 -10 -62 -27 -74 -37 -12 -10 -30 -26 -40 -34 -24
-22 -46 -77 -54 -138 -9 -71 0 -98 37 -111 48 -17 53 -15 112 39 75 68 162
108 226 104 65 -4 99 -23 151 -81 44 -51 103 -144 115 -184 11 -38 78 -162 97
-181 10 -10 20 -13 23 -7 4 5 10 7 15 4 12 -8 28 17 28 45 0 14 1 54 1 90 1
78 -3 103 -30 178 -46 124 -159 223 -333 291 -120 47 -186 52 -274 22z"/>
<path d="M2939 4416 c-2 -2 -26 -6 -54 -9 -27 -3 -63 -10 -80 -17 -16 -6 -38
-14 -47 -16 -10 -2 -26 -6 -35 -9 -10 -2 -35 -9 -56 -14 -91 -22 -180 -149
-178 -255 0 -70 11 -87 78 -119 51 -25 56 -25 101 -12 47 14 58 27 77 92 8 28
100 123 120 124 17 2 14 1 75 18 25 6 61 18 80 26 65 24 154 36 185 25 27 -10
85 14 85 34 0 20 -55 73 -100 96 -19 10 -59 23 -88 29 -51 11 -154 15 -163 7z"/>
<path d="M1678 4193 c-10 -2 -18 -9 -18 -14 0 -5 -9 -9 -19 -9 -11 0 -27 -7
-35 -16 -9 -8 -16 -12 -16 -7 -1 14 -42 -69 -61 -124 -40 -117 -42 -409 -3
-633 2 -14 7 -47 10 -75 3 -27 8 -53 10 -56 2 -4 6 -31 10 -60 3 -30 8 -57 10
-60 2 -4 6 -24 9 -45 4 -22 11 -54 17 -72 5 -18 11 -39 12 -45 16 -95 116
-285 189 -360 37 -38 61 -55 129 -88 24 -12 135 -11 158 1 19 10 24 1 46 -85
4 -16 8 -34 10 -40 17 -65 113 -315 156 -405 85 -179 214 -523 233 -620 2 -10
8 -27 13 -37 5 -10 15 -52 22 -93 7 -41 16 -86 21 -100 5 -14 11 -44 13 -66 3
-23 10 -61 16 -85 7 -24 13 -60 15 -80 2 -20 6 -46 9 -57 4 -11 9 -29 11 -39
13 -66 27 -119 44 -165 10 -29 24 -74 30 -100 28 -123 36 -147 61 -198 35 -69
66 -101 143 -143 73 -40 322 -124 477 -161 8 -2 42 -11 75 -19 151 -39 296
-43 434 -13 221 49 249 74 351 315 75 177 99 229 122 262 13 20 37 72 52 115
15 42 40 96 54 118 47 73 47 73 134 291 11 28 40 75 65 105 25 30 66 98 90
150 68 144 75 160 120 236 42 70 73 145 73 175 0 8 11 30 25 48 13 19 29 59
35 90 13 63 63 212 86 254 9 15 18 45 20 65 8 69 14 107 23 137 18 58 23 111
23 235 1 127 -1 151 -14 161 -5 3 -9 17 -10 32 -1 15 -8 29 -16 32 -7 3 -10 9
-7 15 3 5 1 10 -4 10 -6 0 -11 7 -11 15 0 8 -5 15 -11 15 -5 0 -7 5 -4 10 3 6
-1 10 -9 10 -9 0 -16 5 -16 10 0 6 -8 10 -17 10 -13 0 -27 -23 -50 -88 -28
-77 -49 -144 -58 -192 -2 -8 -11 -44 -20 -80 -9 -36 -19 -72 -21 -80 -2 -8 -8
-31 -13 -50 -5 -19 -17 -64 -26 -100 -17 -71 -101 -324 -116 -353 -5 -9 -26
-61 -45 -114 -20 -53 -50 -119 -66 -147 -17 -28 -50 -89 -75 -136 -117 -219
-152 -281 -183 -317 -22 -26 -236 -480 -244 -518 -5 -20 -52 -123 -117 -255
-36 -74 -72 -151 -79 -170 -17 -43 -52 -101 -71 -116 -43 -34 -178 -39 -265
-9 -26 9 -53 14 -60 11 -7 -3 -16 -1 -19 4 -3 5 -31 14 -63 20 -73 14 -134 31
-146 42 -6 4 -18 8 -27 8 -9 0 -38 10 -65 22 -27 12 -52 22 -56 23 -3 0 -20
10 -36 22 -30 22 -38 43 -93 238 -39 139 -47 173 -53 207 -3 18 -10 49 -16 68
-6 19 -13 60 -16 90 -3 30 -10 78 -15 105 -6 28 -12 76 -14 108 -2 33 -8 64
-13 70 -4 7 -9 28 -11 47 -1 19 -11 60 -20 90 -10 30 -26 82 -35 115 -10 33
-26 82 -37 109 -10 27 -17 51 -15 54 3 2 42 8 87 13 46 5 85 11 87 14 3 2 12
-5 21 -17 10 -11 28 -22 42 -24 13 -2 43 -6 67 -9 28 -4 62 0 100 12 48 15 70
31 142 103 47 47 94 103 105 125 11 22 28 48 37 59 18 19 18 19 65 -2 27 -11
61 -24 77 -27 33 -7 49 -17 183 -117 112 -84 159 -105 243 -112 52 -4 70 -1
95 14 39 24 57 59 43 85 -6 10 -10 51 -9 91 2 103 -23 150 -138 252 -117 105
-137 116 -212 107 -33 -4 -66 -14 -74 -22 -17 -17 -19 -51 -5 -87 5 -15 6 -26
0 -26 -5 0 -16 -7 -25 -16 -12 -12 -37 -17 -88 -19 -85 -2 -111 -14 -125 -55
l-11 -30 -48 29 c-28 17 -67 31 -95 33 -25 3 -53 12 -62 21 -9 8 -30 20 -48
26 -95 29 -169 21 -255 -30 -58 -35 -195 -162 -227 -212 -18 -26 -46 -37 -46
-17 0 5 -36 83 -79 172 -95 194 -172 414 -189 538 -12 90 -4 603 12 750 6 54
20 370 19 420 -1 25 -2 95 -3 155 -1 61 -6 126 -11 145 -9 36 -46 77 -89 97
-86 41 -161 71 -174 69 -27 -4 -56 -39 -56 -67 0 -15 -5 -40 -10 -54 -10 -26
-11 -26 -33 -11 -44 32 -174 95 -233 112 -69 21 -58 18 -114 28 -25 4 -52 9
-60 10 -8 2 -23 1 -32 -1z m300 -253 c37 -43 58 -109 68 -210 3 -34 6 -291 3
-310 -5 -32 2 -48 19 -46 16 1 17 -22 18 -354 1 -195 4 -381 7 -412 4 -36 3
-58 -4 -58 -5 0 -12 7 -15 15 -4 8 -12 15 -18 15 -7 0 -22 13 -34 30 -14 18
-28 27 -37 24 -8 -4 -16 -1 -16 5 -5 38 -7 48 -13 66 -4 11 -13 34 -19 50 -7
17 -12 32 -13 35 0 3 -5 16 -11 30 -12 28 -45 135 -66 220 -16 60 -32 154 -43
240 -3 30 -8 64 -10 75 -3 11 -7 76 -8 145 -2 69 -7 136 -10 150 -9 38 13 248
31 292 8 21 27 47 40 58 l25 20 47 -33 c25 -17 52 -39 59 -47z"/>
<path d="M4231 3696 c-21 -23 -23 -33 -22 -138 2 -165 15 -224 58 -258 33 -26
73 -26 106 0 26 20 54 89 59 145 1 17 6 35 10 41 19 26 19 85 0 127 -21 47
-56 77 -111 95 -51 18 -75 15 -100 -12z"/>
<path d="M2752 3613 c-11 -16 -18 -35 -17 -44 2 -8 6 -42 9 -75 14 -122 18
-140 44 -193 25 -49 30 -54 65 -57 42 -3 101 24 103 47 2 25 17 74 27 87 5 7
11 27 13 45 2 17 6 47 9 66 6 30 2 38 -39 76 -44 41 -122 75 -171 75 -14 0
-31 -11 -43 -27z"/>
<path d="M3415 3576 c-16 -7 -64 -46 -105 -87 -74 -73 -90 -100 -107 -189 -3
-14 -6 -149 -7 -300 -2 -151 -6 -288 -10 -303 -9 -39 -49 -141 -81 -212 -36
-77 -53 -148 -48 -205 6 -78 18 -95 98 -135 162 -81 313 -44 414 102 18 27 20
36 10 55 -34 66 -93 103 -150 94 l-38 -6 14 35 c8 19 15 44 15 55 0 11 4 20 8
20 8 0 34 55 61 125 11 30 20 121 25 243 2 34 5 64 8 67 3 3 0 33 -7 68 -6 34
-11 109 -10 167 0 97 2 109 29 153 15 27 39 58 53 70 14 12 32 35 40 50 13 26
13 31 -3 55 -47 76 -138 109 -209 78z"/>
<path d="M3615 1606 c-40 -20 -94 -24 -216 -17 -91 6 -149 -27 -149 -84 0 -17
49 -44 94 -54 68 -14 200 -5 271 19 64 20 145 78 145 102 0 4 -12 19 -26 33
-29 30 -60 30 -119 1z"/>
</g>
</svg>
