<?xml version="1.0" standalone="no"?>
<!DOCTYPE svg PUBLIC "-//W3C//DTD SVG 20010904//EN"
 "http://www.w3.org/TR/2001/REC-SVG-20010904/DTD/svg10.dtd">
<svg version="1.0" xmlns="http://www.w3.org/2000/svg"
 width="741.000000pt" height="741.000000pt" viewBox="0 0 741.000000 741.000000"
 preserveAspectRatio="xMidYMid meet">
<metadata>
Created by potrace 1.14, written by Peter Selinger 2001-2017
</metadata>
<g transform="translate(0.000000,741.000000) scale(0.100000,-0.100000)"
fill="#000000" stroke="none">
<path d="M4305 7395 c-28 -6 -56 -15 -63 -19 -7 -4 -12 -3 -12 3 0 6 -12 6
-32 -1 -18 -6 -44 -10 -57 -10 -18 0 -20 -2 -10 -9 8 -5 12 -9 9 -10 -3 0 -13
-2 -23 -4 -9 -2 -15 1 -11 6 3 5 0 9 -5 9 -6 0 -11 -6 -11 -12 0 -15 -128 -58
-156 -54 -11 2 -13 1 -5 -1 7 -3 -25 -23 -70 -45 -46 -23 -117 -63 -158 -89
-41 -27 -79 -49 -86 -49 -31 0 -92 -96 -81 -127 6 -15 33 -18 38 -3 2 5 13 7
26 4 16 -5 20 -10 12 -19 -8 -9 -4 -12 14 -10 18 2 23 -1 19 -11 -3 -8 -2 -14
3 -13 5 1 11 0 14 -1 3 -1 21 -3 40 -5 19 -2 35 -4 35 -5 0 -1 26 -3 58 -5 58
-3 59 -3 106 45 29 28 68 55 97 65 27 10 85 34 129 53 157 68 200 84 236 87
41 4 161 30 229 51 25 7 65 14 90 15 51 1 192 -9 230 -16 14 -3 36 -7 50 -10
23 -4 51 -13 90 -29 8 -3 29 -15 45 -26 17 -11 35 -22 41 -25 20 -11 110 -100
137 -135 27 -37 120 -210 112 -210 -2 0 4 -20 15 -45 11 -25 20 -49 21 -53 1
-4 6 -18 11 -32 6 -14 17 -47 25 -75 49 -171 65 -243 53 -250 -5 -3 -10 -2
-12 3 -12 28 -284 156 -408 191 -122 35 -141 39 -220 51 -97 15 -134 10 -138
-18 -2 -11 2 -30 8 -41 10 -20 142 -89 184 -97 78 -15 133 -30 226 -61 60 -21
248 -120 270 -143 3 -3 23 -17 45 -33 39 -26 63 -47 142 -118 72 -66 71 -70
-7 -43 -103 35 -196 29 -250 -14 -33 -27 -28 -62 17 -123 57 -77 141 -162 153
-154 5 3 10 0 10 -7 0 -8 15 -28 33 -45 114 -109 145 -136 167 -148 48 -25 98
-79 104 -112 3 -18 9 -48 14 -65 9 -41 9 -464 -1 -499 -5 -22 -11 -25 -37 -21
-24 3 -34 13 -55 57 -14 30 -25 61 -25 69 0 21 -21 66 -32 66 -4 0 -8 8 -8 18
0 44 -93 131 -133 123 -4 0 -22 5 -40 12 -35 14 -38 14 -84 3 -27 -6 -33 -12
-33 -34 0 -15 10 -47 21 -72 11 -25 22 -52 24 -60 2 -8 10 -44 19 -80 15 -66
42 -230 49 -306 2 -23 7 -46 10 -51 4 -6 9 -34 11 -64 3 -30 9 -78 14 -106 5
-29 7 -55 4 -58 -3 -2 -38 -2 -79 2 l-74 6 -43 -45 c-49 -51 -81 -128 -128
-308 -34 -131 -36 -139 -43 -195 -4 -22 -8 -53 -11 -70 -9 -52 -7 -101 5 -123
20 -37 123 -50 146 -18 10 13 14 14 18 4 2 -7 7 12 12 42 4 30 16 89 27 130
24 87 23 81 33 145 4 28 10 55 14 60 3 6 6 12 7 15 9 54 72 210 85 210 3 0 23
-17 43 -37 36 -36 106 -165 106 -196 0 -7 4 -17 9 -22 6 -6 12 -21 14 -35 3
-14 8 -36 11 -50 29 -127 37 -267 22 -391 -8 -65 -9 -70 -37 -167 -42 -147
-134 -271 -241 -325 -86 -44 -149 -43 -238 3 -54 27 -89 33 -105 17 -12 -12
-12 -17 1 -36 22 -31 125 -98 170 -110 143 -38 375 31 467 140 90 104 165 280
184 427 9 67 9 268 0 302 -2 8 -7 38 -12 65 -9 58 -29 138 -44 178 -6 15 -9
27 -7 27 3 0 -15 37 -39 83 -47 92 -67 195 -40 217 13 11 13 31 -2 110 -3 19
-7 94 -8 165 -3 125 5 172 26 160 38 -24 177 -25 213 -2 41 27 72 105 75 189
1 40 6 79 11 88 5 9 7 87 6 174 l-2 158 38 16 c52 23 68 64 55 141 -5 31 -13
61 -18 66 -4 6 -15 32 -24 58 -22 65 -65 133 -92 146 -16 7 -23 19 -23 40 0
16 -7 34 -15 41 -8 7 -15 18 -15 26 0 7 -6 17 -13 21 -6 4 -25 27 -41 51 -30
44 -141 162 -154 162 -4 0 -44 35 -88 78 l-82 77 5 80 c7 115 6 121 -16 220
-12 50 -23 104 -26 120 -3 17 -12 55 -20 85 -8 30 -17 62 -19 71 -7 28 -55
115 -76 137 -11 12 -20 25 -20 29 0 26 -259 243 -291 243 -5 0 -26 11 -47 24
-38 25 -223 91 -302 107 -129 26 -167 31 -310 33 -93 2 -175 -2 -205 -9z
m1347 -1552 c40 -42 105 -148 118 -194 10 -34 0 -38 -20 -7 -8 13 -34 42 -57
65 -53 54 -116 149 -108 163 11 18 30 11 67 -27z"/>
<path d="M2104 6683 c-12 -8 -34 -16 -49 -19 -32 -6 -112 -42 -139 -64 -101
-79 -209 -220 -222 -290 -4 -19 -13 -44 -20 -55 -27 -45 -38 -196 -18 -265 13
-45 57 -96 102 -119 29 -15 28 -27 -6 -61 -16 -15 -48 -52 -73 -82 -24 -29
-47 -54 -51 -56 -5 -2 -8 -8 -8 -14 0 -6 -11 -25 -24 -42 -13 -17 -40 -65 -61
-106 -24 -48 -62 -100 -105 -145 -65 -67 -97 -111 -92 -127 1 -5 -3 -7 -9 -5
-11 2 -51 -62 -88 -139 -37 -80 -43 -149 -17 -189 27 -41 170 -127 241 -145
28 -7 47 -21 65 -46 46 -65 105 -124 130 -131 46 -11 105 -9 105 4 0 7 10 20
23 29 13 9 22 23 21 32 -1 10 0 22 1 27 3 9 5 38 9 106 0 14 9 34 19 45 10 11
26 41 35 68 21 62 125 256 138 256 5 0 9 9 9 20 0 26 23 55 103 127 9 9 17 25
17 35 0 18 46 89 62 96 4 2 32 27 61 55 30 29 73 67 96 85 33 27 40 38 35 55
-10 35 -45 67 -101 94 -68 33 -69 60 -3 76 14 4 39 19 56 34 60 54 253 139
369 163 32 7 70 19 83 28 30 20 26 60 -9 81 -15 9 -47 31 -72 49 -25 17 -48
32 -51 32 -2 0 -17 5 -33 12 -39 15 -51 18 -103 21 -41 3 -154 -22 -182 -40
-7 -4 -19 -8 -26 -9 -25 -4 -168 -67 -228 -100 -34 -19 -68 -32 -76 -29 -10 4
-17 -1 -21 -14 -7 -28 -35 -27 -39 2 -2 12 0 47 5 77 6 41 14 60 32 73 14 10
30 39 39 70 16 55 40 90 93 140 18 16 30 34 27 38 -3 5 6 9 20 9 14 0 26 4 26
8 0 5 14 9 31 10 17 0 41 8 54 16 13 8 36 18 52 22 43 10 204 12 238 3 16 -5
68 -18 115 -29 47 -12 103 -30 125 -40 22 -10 67 -31 100 -46 33 -15 62 -30
65 -34 10 -13 67 -39 74 -33 3 4 6 1 6 -5 0 -13 66 -36 85 -28 22 8 18 49 -6
75 -19 20 -243 171 -255 171 -2 0 -23 9 -47 20 -112 51 -398 135 -408 119 -5
-8 -8 -8 -10 0 -5 13 -125 41 -135 32 -3 -3 -19 -6 -36 -7 -20 -1 -26 1 -17 7
8 5 -11 8 -46 7 -34 0 -70 -7 -81 -15z m-304 -258 c0 -3 -13 -26 -29 -52 -24
-38 -31 -44 -37 -30 -3 9 -1 24 6 32 7 8 10 15 6 15 -3 0 2 9 11 20 16 18 43
28 43 15z m10 -45 c0 -5 -2 -10 -4 -10 -3 0 -8 5 -11 10 -3 6 -1 10 4 10 6 0
11 -4 11 -10z"/>
<path d="M3752 6604 c-34 -7 -81 -23 -105 -36 -52 -28 -157 -108 -157 -119 0
-5 -7 -9 -16 -9 -24 0 -137 -122 -168 -182 -28 -53 -33 -68 -40 -123 -2 -16
-7 -47 -11 -68 -5 -26 -3 -42 6 -54 10 -12 10 -14 2 -9 -15 8 -14 9 -17 -89
-2 -78 8 -148 26 -185 15 -31 43 -60 58 -60 7 0 19 -9 28 -20 23 -28 112 -58
166 -57 24 1 42 -1 39 -5 -10 -18 85 -7 110 12 14 11 30 20 36 20 5 0 23 -29
40 -64 35 -76 65 -106 152 -151 75 -38 126 -54 210 -64 3 -1 11 -36 18 -78 23
-136 60 -233 106 -278 89 -89 309 -131 401 -75 43 26 84 69 84 87 0 6 8 28 19
50 20 41 35 88 46 141 l7 34 32 -30 c31 -31 151 -92 178 -92 8 0 20 11 26 24
8 19 7 31 -10 62 -11 22 -26 44 -34 50 -18 15 -54 96 -59 135 -4 33 -32 109
-74 203 -19 44 -34 62 -56 71 -16 7 -39 16 -50 20 -11 5 -29 9 -40 11 -11 1
-42 5 -69 9 -68 11 -72 2 -70 -137 4 -212 -63 -496 -114 -486 -14 3 -74 166
-66 179 2 4 -3 23 -11 43 -11 25 -17 89 -21 213 -3 98 -5 189 -4 203 8 92 -2
189 -19 199 -7 4 -20 23 -29 41 -13 25 -28 37 -62 48 -25 8 -61 20 -80 27 -47
17 -105 18 -117 3 -12 -16 -33 -97 -40 -158 -5 -43 -17 -69 -28 -59 -9 9 -14
119 -5 124 5 3 7 29 4 58 -2 28 -5 117 -8 197 -2 80 -6 156 -10 170 -3 14 -21
38 -41 53 -19 16 -35 32 -35 36 0 4 21 18 48 31 51 26 72 43 72 59 0 18 -59
52 -123 70 -55 16 -69 16 -125 5z m-92 -534 c0 -5 -5 -10 -11 -10 -5 0 -7 5
-4 10 3 6 8 10 11 10 2 0 4 -4 4 -10z m-130 -274 c0 -3 -4 -8 -10 -11 -5 -3
-10 -1 -10 4 0 6 5 11 10 11 6 0 10 -2 10 -4z m456 -33 c-10 -10 -19 5 -10 18
6 11 8 11 12 0 2 -7 1 -15 -2 -18z m-289 -119 c-3 -3 -12 -4 -19 -1 -8 3 -5 6
6 6 11 1 17 -2 13 -5z"/>
<path d="M4050 4602 c-66 -25 -127 -72 -144 -112 -35 -79 -41 -169 -13 -197 7
-7 28 -15 47 -18 31 -4 40 0 84 41 58 55 154 105 206 109 115 8 212 -87 305
-298 49 -113 88 -169 112 -160 33 12 38 33 37 136 -1 115 -25 200 -74 272 -46
67 -158 153 -240 185 -19 7 -55 22 -80 33 -62 28 -180 32 -240 9z"/>
<path d="M2940 4417 c-3 -3 -28 -7 -57 -11 -28 -3 -64 -11 -80 -18 -36 -15
-28 -12 -103 -29 -64 -14 -106 -44 -161 -115 -44 -57 -60 -194 -27 -228 30
-29 108 -65 131 -59 12 3 34 7 49 10 23 4 31 15 49 64 31 85 92 139 184 163
39 9 86 24 105 32 55 22 108 28 204 24 17 -1 37 7 50 19 l20 20 -35 35 c-40
40 -98 72 -154 84 -44 10 -168 16 -175 9z"/>
<path d="M1677 4185 c-9 -8 -25 -15 -37 -15 -11 0 -23 -7 -26 -15 -4 -8 -12
-15 -18 -15 -16 0 -52 -79 -72 -160 -25 -95 -24 -361 1 -550 5 -38 24 -160 31
-200 2 -14 11 -63 20 -110 8 -47 17 -94 21 -105 3 -11 6 -22 6 -25 4 -31 64
-177 98 -237 92 -161 188 -233 314 -233 35 0 67 5 70 10 12 19 23 10 30 -22
16 -80 116 -368 157 -453 75 -154 159 -365 207 -515 29 -91 56 -174 61 -185
11 -27 29 -105 35 -156 3 -23 8 -45 10 -49 3 -4 7 -25 11 -46 11 -77 15 -97
20 -105 2 -5 9 -36 13 -71 11 -77 32 -162 71 -288 16 -52 34 -119 40 -148 12
-66 70 -189 102 -219 69 -63 383 -183 573 -218 11 -2 36 -9 55 -15 65 -21 204
-38 290 -35 50 1 133 14 204 31 107 25 123 32 165 70 33 30 60 69 89 128 23
47 42 89 42 94 0 16 93 217 140 302 11 19 32 67 46 105 15 39 36 83 47 98 26
38 63 108 72 138 4 13 17 47 30 74 12 28 28 67 36 88 7 20 33 61 57 90 38 46
61 88 156 287 11 25 28 56 37 70 50 78 77 139 93 211 3 14 14 36 25 48 11 12
27 53 35 91 17 71 68 221 88 255 6 11 13 29 14 40 2 11 5 38 9 60 3 22 14 78
24 125 23 102 25 346 3 372 -7 9 -12 20 -11 24 4 23 -2 45 -11 39 -5 -3 -10 3
-10 15 0 12 -4 19 -9 15 -5 -3 -13 5 -17 17 -7 25 -32 47 -51 48 -6 0 -19 -21
-29 -47 -10 -27 -20 -52 -24 -58 -9 -13 -27 -76 -46 -155 -8 -36 -16 -72 -18
-80 -80 -337 -219 -738 -310 -894 -23 -39 -59 -107 -81 -151 -22 -44 -43 -82
-46 -85 -4 -3 -18 -27 -33 -55 -14 -27 -44 -78 -66 -113 -65 -103 -166 -310
-231 -472 -17 -41 -35 -84 -39 -95 -22 -49 -130 -271 -140 -285 -5 -8 -19 -40
-30 -70 -11 -30 -33 -78 -50 -107 -26 -46 -36 -54 -77 -66 -67 -20 -161 -12
-287 22 -60 17 -121 32 -135 34 -14 2 -34 7 -43 10 -10 4 -26 10 -35 14 -10 3
-27 8 -38 10 -36 6 -185 82 -185 94 0 6 -6 25 -14 42 -18 40 -32 90 -41 142
-4 22 -10 44 -13 50 -4 5 -7 12 -8 15 0 3 -8 30 -17 60 -9 30 -19 71 -22 90
-3 19 -13 61 -21 93 -8 31 -15 74 -15 95 -1 20 -7 64 -14 97 -7 33 -13 78 -13
100 -1 22 -5 52 -11 67 -5 14 -13 46 -16 69 -7 47 -63 233 -95 312 -12 32 -15
47 -7 48 7 1 21 3 32 4 149 17 150 17 168 -3 26 -29 156 -35 220 -10 47 18
188 156 224 218 15 25 35 55 46 67 19 21 22 22 38 7 9 -8 40 -21 69 -29 55
-14 86 -33 210 -125 41 -31 91 -66 110 -77 62 -37 218 -53 228 -23 2 5 9 10
17 10 20 0 39 54 27 77 -6 10 -9 50 -7 88 3 82 -23 150 -78 200 -163 148 -189
164 -268 159 -86 -6 -113 -38 -85 -104 4 -10 -3 -25 -19 -40 -21 -20 -36 -24
-93 -25 -78 -1 -110 -15 -124 -55 l-9 -29 -52 29 c-29 16 -72 31 -96 34 -23 2
-50 11 -59 19 -55 46 -185 55 -265 18 -48 -22 -140 -94 -189 -147 -15 -16 -47
-51 -72 -79 -25 -27 -46 -45 -46 -38 0 6 -36 85 -79 175 -107 220 -185 451
-198 586 -9 96 0 543 12 637 20 149 26 730 9 793 -15 52 -39 74 -129 116 -137
64 -143 65 -173 21 -13 -18 -22 -36 -21 -41 4 -12 -11 -74 -18 -74 -3 0 -18 9
-33 20 -81 58 -237 120 -340 135 -25 3 -52 9 -61 11 -9 3 -24 -2 -32 -11z
m266 -213 c88 -63 109 -139 113 -402 3 -220 1 -201 19 -194 19 8 17 48 19
-428 1 -361 0 -395 -15 -382 -8 8 -21 14 -27 14 -7 0 -12 5 -12 11 0 16 -31
44 -49 44 -10 0 -17 11 -19 30 -2 17 -7 35 -11 40 -4 6 -14 30 -21 55 -7 25
-18 51 -23 58 -6 7 -12 27 -14 43 -1 17 -7 39 -13 49 -10 19 -37 114 -46 160
-2 14 -9 50 -15 80 -6 30 -12 71 -14 90 -2 19 -6 51 -9 70 -17 99 -24 185 -16
196 5 6 8 21 5 34 -4 23 -17 127 -17 145 -1 50 16 190 27 231 16 56 58 109 78
98 6 -4 34 -23 60 -42z"/>
<path d="M4239 3701 c-23 -19 -24 -23 -22 -154 2 -151 12 -202 48 -241 29 -32
81 -35 114 -7 25 22 61 116 61 160 0 16 5 33 10 36 17 10 11 98 -8 135 -22 40
-102 88 -148 89 -18 1 -42 -8 -55 -18z"/>
<path d="M2760 3624 c-31 -37 -9 -240 36 -329 24 -46 28 -50 62 -50 20 0 43 4
50 8 6 5 12 6 12 2 0 -3 8 -1 19 4 12 7 21 27 25 56 4 24 14 51 22 60 9 8 17
42 20 85 5 71 5 72 -28 102 -68 62 -190 97 -218 62z"/>
<path d="M3431 3583 c-13 -3 -63 -44 -110 -91 -117 -117 -116 -114 -117 -457
-1 -329 -6 -358 -92 -545 -38 -83 -56 -168 -47 -230 7 -49 36 -100 57 -100 6
0 35 -12 64 -26 99 -49 241 -34 315 31 61 54 92 103 84 132 -14 57 -98 111
-155 99 -22 -4 -30 -2 -30 9 0 7 5 17 10 20 6 3 10 14 10 23 0 10 9 36 21 57
39 75 68 164 68 207 0 24 2 63 6 88 8 56 8 146 -1 322 -6 132 -5 138 19 190
14 30 39 65 55 79 31 26 52 59 52 83 0 24 -52 78 -95 97 -39 18 -66 21 -114
12z"/>
<path d="M3610 1604 c-56 -21 -76 -23 -140 -18 -91 8 -126 7 -151 -7 -11 -5
-19 -7 -19 -3 0 17 -38 -30 -43 -51 -20 -108 369 -106 470 2 39 41 40 52 10
81 -28 27 -43 26 -127 -4z"/>
</g>
</svg>
